<svg version="1.1" viewBox="0.0 0.0 762.0 544.0" fill="none" stroke="none" stroke-linecap="square" stroke-miterlimit="10" width="762" height="544" xmlns:xlink="http://www.w3.org/1999/xlink" xmlns="http://www.w3.org/2000/svg"><path fill="#ffffff" d="M0 0L762.0 0L762.0 544.0L0 544.0L0 0Z" fill-rule="nonzero"/><path fill="#004566" d="M523.31775 309.84668C523.31775 375.60583 464.63275 434.36148 376.40182 456.93945L376.40182 423.37946C464.63275 400.80148 523.31775 342.04584 523.31775 276.28665Z" fill-rule="nonzero"/><path fill="#006391" d="M299.58444 119.67333C408.10132 119.67333 500.97232 174.18394 519.89136 248.98242C538.81036 323.7809 478.32196 397.29846 376.40182 423.37946L299.58444 276.28665Z" fill-rule="nonzero"/><path fill="#9e3427" d="M376.40182 456.93945C369.32062 458.75153 362.11313 460.31186 354.8069 461.6145L354.8069 428.0545C362.11313 426.75186 369.32062 425.19153 376.40182 423.37946Z" fill-rule="nonzero"/><path fill="#e24a38" d="M376.40182 423.37946C369.32062 425.19153 362.11313 426.75186 354.8069 428.0545L299.58444 276.28665Z" fill-rule="nonzero"/><path fill="#4d92b2" d="M291.62354 119.77251C294.27612 119.7064 296.93018 119.67333 299.58444 119.67333L299.58444 276.28665Z" fill-rule="nonzero"/><path fill="#f5959c" d="M206.52287 133.86436C233.28941 125.294365 262.20862 120.50562 291.62354 119.77251L299.58444 276.28665Z" fill-rule="nonzero"/><path fill="#1c6b61" d="M354.8069 461.6145C287.87476 473.54794 216.82085 463.17276 162.2864 433.5029C107.751945 403.83307 75.85111 358.195 75.85111 309.84668L75.85111 276.28665C75.85111 324.635 107.751945 370.27307 162.2864 399.9429C216.82085 429.61276 287.87476 439.98795 354.8069 428.0545Z" fill-rule="nonzero"/><path fill="#28998b" d="M354.8069 428.0545C242.59935 448.0602 127.12499 404.83087 88.59865 328.396C50.0723 251.96112 101.22483 167.57825 206.52287 133.86436L299.58444 276.28665Z" fill-rule="nonzero"/><path fill="#000000" d="M453.12283 260.3404L453.12283 257.93414L448.76346 257.93414L448.76346 256.80914L453.34158 250.32477L454.34158 250.32477L454.34158 256.80914L455.70096 256.80914L455.70096 257.93414L454.34158 257.93414L454.34158 260.3404L453.12283 260.3404ZM453.12283 256.80914L453.12283 252.29352L449.9822 256.80914L453.12283 256.80914ZM461.12283 260.3404L461.12283 257.93414L456.76346 257.93414L456.76346 256.80914L461.34158 250.32477L462.34158 250.32477L462.34158 256.80914L463.70096 256.80914L463.70096 257.93414L462.34158 257.93414L462.34158 260.3404L461.12283 260.3404ZM461.12283 256.80914L461.12283 252.29352L457.9822 256.80914L461.12283 256.80914ZM465.8572 260.3404L465.8572 258.93414L467.26346 258.93414L467.26346 260.3404L465.8572 260.3404ZM473.12283 260.3404L473.12283 257.93414L468.76346 257.93414L468.76346 256.80914L473.34158 250.32477L474.34158 250.32477L474.34158 256.80914L475.70096 256.80914L475.70096 257.93414L474.34158 257.93414L474.34158 260.3404L473.12283 260.3404ZM473.12283 256.80914L473.12283 252.29352L469.9822 256.80914L473.12283 256.80914ZM477.40408 252.73102Q477.40408 251.6529 477.93533 250.9029Q478.4822 250.1529 479.51346 250.1529Q480.45096 250.1529 481.06033 250.82477Q481.68533 251.49664 481.68533 252.79352Q481.68533 254.07477 481.06033 254.76227Q480.43533 255.44977 479.52908 255.44977Q478.62283 255.44977 478.01346 254.7779Q477.40408 254.0904 477.40408 252.73102ZM479.5447 250.99664Q479.09158 250.99664 478.77908 251.4029Q478.4822 251.79352 478.4822 252.8404Q478.4822 253.80914 478.77908 254.19977Q479.09158 254.5904 479.5447 254.5904Q480.01346 254.5904 480.31033 254.19977Q480.62283 253.80914 480.62283 252.74664Q480.62283 251.7779 480.31033 251.38727Q479.99783 250.99664 479.5447 250.99664ZM479.5447 260.7154L485.02908 250.1529L486.02908 250.1529L480.57596 260.7154L479.5447 260.7154ZM483.88846 257.98102Q483.88846 256.9029 484.4197 256.16852Q484.96658 255.41852 485.99783 255.41852Q486.93533 255.41852 487.56033 256.0904Q488.18533 256.76227 488.18533 258.05914Q488.18533 259.3404 487.56033 260.0279Q486.93533 260.7154 485.99783 260.7154Q485.09158 260.7154 484.4822 260.04352Q483.88846 259.35602 483.88846 257.98102ZM486.02908 256.26227Q485.56033 256.26227 485.26346 256.66852Q484.96658 257.05914 484.96658 258.10602Q484.96658 259.07477 485.26346 259.4654Q485.57596 259.85602 486.02908 259.85602Q486.49783 259.85602 486.7947 259.4654Q487.1072 259.07477 487.1072 258.01227Q487.1072 257.04352 486.7947 256.6529Q486.49783 256.26227 486.02908 256.26227Z" fill-rule="nonzero"/><path fill="#000000" d="M125.94814 320.35092L125.94814 317.94467L121.58877 317.94467L121.58877 316.81967L126.16689 310.3353L127.16689 310.3353L127.16689 316.81967L128.52628 316.81967L128.52628 317.94467L127.16689 317.94467L127.16689 320.35092L125.94814 320.35092ZM125.94814 316.81967L125.94814 312.30405L122.80752 316.81967L125.94814 316.81967ZM130.07315 311.6478L130.07315 310.4603L136.57315 310.4603L136.57315 311.41342Q135.6044 312.42905 134.6669 314.11655Q133.7294 315.80405 133.21378 317.60092Q132.8544 318.85092 132.74503 320.35092L131.4794 320.35092Q131.49503 319.16342 131.93253 317.49155Q132.38565 315.81967 133.21378 314.2728Q134.05753 312.7103 134.99503 311.6478L130.07315 311.6478ZM138.68253 320.35092L138.68253 318.94467L140.08878 318.94467L140.08878 320.35092L138.68253 320.35092ZM146.63565 320.35092L145.40128 320.35092L145.40128 312.50717Q144.96378 312.92905 144.2294 313.36655Q143.51065 313.78842 142.94815 313.99155L142.94815 312.80405Q143.9794 312.31967 144.74503 311.63217Q145.52628 310.94467 145.83878 310.28842L146.63565 310.28842L146.63565 320.35092ZM150.2294 312.74155Q150.2294 311.66342 150.76065 310.91342Q151.30753 310.16342 152.33878 310.16342Q153.27628 310.16342 153.88565 310.8353Q154.51065 311.50717 154.51065 312.80405Q154.51065 314.0853 153.88565 314.7728Q153.26065 315.4603 152.3544 315.4603Q151.44815 315.4603 150.83878 314.78842Q150.2294 314.10092 150.2294 312.74155ZM152.37003 311.00717Q151.9169 311.00717 151.6044 311.41342Q151.30753 311.80405 151.30753 312.85092Q151.30753 313.81967 151.6044 314.2103Q151.9169 314.60092 152.37003 314.60092Q152.83878 314.60092 153.13565 314.2103Q153.44815 313.81967 153.44815 312.75717Q153.44815 311.78842 153.13565 311.3978Q152.82315 311.00717 152.37003 311.00717ZM152.37003 320.72592L157.8544 310.16342L158.8544 310.16342L153.40128 320.72592L152.37003 320.72592ZM156.71378 317.99155Q156.71378 316.91342 157.24503 316.17905Q157.7919 315.42905 158.82315 315.42905Q159.76065 315.42905 160.38565 316.10092Q161.01065 316.7728 161.01065 318.06967Q161.01065 319.35092 160.38565 320.03842Q159.76065 320.72592 158.82315 320.72592Q157.9169 320.72592 157.30753 320.05405Q156.71378 319.36655 156.71378 317.99155ZM158.8544 316.2728Q158.38565 316.2728 158.08878 316.67905Q157.7919 317.06967 157.7919 318.11655Q157.7919 319.0853 158.08878 319.47592Q158.40128 319.86655 158.8544 319.86655Q159.32315 319.86655 159.62003 319.47592Q159.93253 319.0853 159.93253 318.0228Q159.93253 317.05405 159.62003 316.66342Q159.32315 316.2728 158.8544 316.2728Z" fill-rule="nonzero"/><path fill="#000000" d="M251.18916 157.24173L249.97041 157.33548Q249.79854 156.6011 249.50166 156.27298Q249.00166 155.75735 248.26729 155.75735Q247.67354 155.75735 247.23604 156.08548Q246.65791 156.50735 246.31416 157.31985Q245.98604 158.13235 245.97041 159.63235Q246.40791 158.96048 247.04854 158.63235Q247.70479 158.30423 248.40791 158.30423Q249.64229 158.30423 250.50166 159.21048Q251.36104 160.11673 251.36104 161.55423Q251.36104 162.49173 250.95479 163.30423Q250.54854 164.11673 249.82979 164.55423Q249.12666 164.9761 248.22041 164.9761Q246.68916 164.9761 245.72041 163.8511Q244.75166 162.71048 244.75166 160.11673Q244.75166 157.21048 245.81416 155.88235Q246.75166 154.74173 248.34541 154.74173Q249.53291 154.74173 250.28291 155.4136Q251.03291 156.06985 251.18916 157.24173ZM246.15791 161.55423Q246.15791 162.19485 246.42354 162.77298Q246.70479 163.3511 247.18916 163.6636Q247.67354 163.96048 248.20479 163.96048Q248.98604 163.96048 249.54854 163.33548Q250.11104 162.71048 250.11104 161.63235Q250.11104 160.58548 249.54854 159.99173Q249.00166 159.38235 248.15791 159.38235Q247.32979 159.38235 246.73604 159.99173Q246.15791 160.58548 246.15791 161.55423ZM253.48604 164.80423L253.48604 163.39798L254.89229 163.39798L254.89229 164.80423L253.48604 164.80423ZM256.81415 162.1636L258.0329 161.99173Q258.25165 163.0386 258.75165 163.50735Q259.26727 163.96048 260.00165 163.96048Q260.87665 163.96048 261.4704 163.36673Q262.06415 162.75735 262.06415 161.86673Q262.06415 161.02298 261.50165 160.4761Q260.95477 159.92923 260.11102 159.92923Q259.75165 159.92923 259.23602 160.05423L259.37665 158.9761Q259.50165 158.99173 259.56415 158.99173Q260.36102 158.99173 260.98602 158.58548Q261.61102 158.17923 261.61102 157.31985Q261.61102 156.64798 261.1579 156.21048Q260.70477 155.75735 259.9704 155.75735Q259.25165 155.75735 258.76727 156.21048Q258.29852 156.64798 258.1579 157.55423L256.93915 157.33548Q257.1579 156.1011 257.95477 155.42923Q258.75165 154.74173 259.93915 154.74173Q260.76727 154.74173 261.45477 155.1011Q262.14227 155.44485 262.50165 156.05423Q262.87665 156.6636 262.87665 157.3511Q262.87665 157.99173 262.5329 158.52298Q262.18915 159.05423 261.50165 159.38235Q262.39227 159.58548 262.87665 160.2261Q263.37665 160.86673 263.37665 161.8511Q263.37665 163.1636 262.4079 164.06985Q261.45477 164.9761 260.00165 164.9761Q258.67352 164.9761 257.79852 164.19485Q256.93915 163.4136 256.81415 162.1636ZM265.0329 157.19485Q265.0329 156.11673 265.56415 155.36673Q266.11102 154.61673 267.14227 154.61673Q268.07977 154.61673 268.68915 155.2886Q269.31415 155.96048 269.31415 157.25735Q269.31415 158.5386 268.68915 159.2261Q268.06415 159.9136 267.1579 159.9136Q266.25165 159.9136 265.64227 159.24173Q265.0329 158.55423 265.0329 157.19485ZM267.17352 155.46048Q266.7204 155.46048 266.4079 155.86673Q266.11102 156.25735 266.11102 157.30423Q266.11102 158.27298 266.4079 158.6636Q266.7204 159.05423 267.17352 159.05423Q267.64227 159.05423 267.93915 158.6636Q268.25165 158.27298 268.25165 157.21048Q268.25165 156.24173 267.93915 155.8511Q267.62665 155.46048 267.17352 155.46048ZM267.17352 165.17923L272.6579 154.61673L273.6579 154.61673L268.20477 165.17923L267.17352 165.17923ZM271.51727 162.44485Q271.51727 161.36673 272.04852 160.63235Q272.5954 159.88235 273.62665 159.88235Q274.56415 159.88235 275.18915 160.55423Q275.81415 161.2261 275.81415 162.52298Q275.81415 163.80423 275.18915 164.49173Q274.56415 165.17923 273.62665 165.17923Q272.7204 165.17923 272.11102 164.50735Q271.51727 163.81985 271.51727 162.44485ZM273.6579 160.7261Q273.18915 160.7261 272.89227 161.13235Q272.5954 161.52298 272.5954 162.56985Q272.5954 163.5386 272.89227 163.92923Q273.20477 164.31985 273.6579 164.31985Q274.12665 164.31985 274.42352 163.92923Q274.73602 163.5386 274.73602 162.4761Q274.73602 161.50735 274.42352 161.11673Q274.12665 160.7261 273.6579 160.7261Z" fill-rule="nonzero"/><path fill="#006391" d="M613.8 76.333336C613.8 79.64704 611.1137 82.333336 607.8 82.333336C604.48627 82.333336 601.8 79.64704 601.8 76.333336C601.8 73.01962 604.48627 70.333336 607.8 70.333336C611.1137 70.333336 613.8 73.01962 613.8 76.333336Z" fill-rule="nonzero"/><path fill="#1a1a1a" d="M621.78436 80.333336L625.08124 71.739586L626.3 71.739586L629.8156 80.333336L628.53436 80.333336L627.51874 77.72396L623.9406 77.72396L622.9875 80.333336L621.78436 80.333336ZM624.26874 76.802086L627.175 76.802086L626.28436 74.427086Q625.8625 73.34896 625.675 72.645836Q625.5031 73.47396 625.20624 74.28646L624.26874 76.802086ZM629.39374 80.84896L630.425 81.00521Q630.4875 81.47396 630.78436 81.69271Q631.175 81.989586 631.84686 81.989586Q632.58124 81.989586 632.97186 81.69271Q633.3781 81.395836 633.51874 80.88021Q633.6125 80.552086 633.59686 79.520836Q632.90936 80.333336 631.8781 80.333336Q630.59686 80.333336 629.89374 79.41146Q629.1906 78.47396 629.1906 77.19271Q629.1906 76.302086 629.5031 75.552086Q629.83124 74.78646 630.4406 74.38021Q631.05 73.97396 631.8781 73.97396Q632.9875 73.97396 633.70624 74.864586L633.70624 74.114586L634.675 74.114586L634.675 79.489586Q634.675 80.94271 634.3781 81.552086Q634.08124 82.16146 633.4406 82.50521Q632.8 82.864586 631.8625 82.864586Q630.7531 82.864586 630.0656 82.364586Q629.3781 81.864586 629.39374 80.84896ZM630.26874 77.114586Q630.26874 78.333336 630.7531 78.895836Q631.2375 79.458336 631.97186 79.458336Q632.70624 79.458336 633.1906 78.895836Q633.6906 78.333336 633.6906 77.145836Q633.6906 76.00521 633.175 75.427086Q632.675 74.84896 631.95624 74.84896Q631.2531 74.84896 630.7531 75.427086Q630.26874 75.989586 630.26874 77.114586ZM640.84686 78.333336L641.9406 78.458336Q641.6906 79.41146 640.9875 79.94271Q640.28436 80.47396 639.20624 80.47396Q637.84686 80.47396 637.03436 79.63021Q636.2375 78.78646 636.2375 77.270836Q636.2375 75.708336 637.05 74.84896Q637.8625 73.97396 639.14374 73.97396Q640.39374 73.97396 641.175 74.81771Q641.97186 75.66146 641.97186 77.208336Q641.97186 77.302086 641.97186 77.489586L637.33124 77.489586Q637.39374 78.520836 637.90936 79.06771Q638.425 79.59896 639.20624 79.59896Q639.78436 79.59896 640.1906 79.302086Q640.6125 78.989586 640.84686 78.333336ZM637.39374 76.63021L640.8625 76.63021Q640.8 75.833336 640.47186 75.44271Q639.95624 74.833336 639.15936 74.833336Q638.425 74.833336 637.925 75.31771Q637.4406 75.802086 637.39374 76.63021ZM643.59686 80.333336L643.59686 74.114586L644.53436 74.114586L644.53436 74.989586Q645.22186 73.97396 646.51874 73.97396Q647.08124 73.97396 647.55 74.177086Q648.03436 74.38021 648.26874 74.708336Q648.5031 75.03646 648.59686 75.47396Q648.64374 75.770836 648.64374 76.50521L648.64374 80.333336L647.59686 80.333336L647.59686 76.552086Q647.59686 75.895836 647.47186 75.583336Q647.34686 75.270836 647.03436 75.083336Q646.72186 74.88021 646.3 74.88021Q645.6281 74.88021 645.1281 75.31771Q644.64374 75.739586 644.64374 76.927086L644.64374 80.333336L643.59686 80.333336ZM652.89374 79.395836L653.05 80.31771Q652.59686 80.41146 652.2531 80.41146Q651.675 80.41146 651.3625 80.239586Q651.05 80.052086 650.90936 79.75521Q650.78436 79.458336 650.78436 78.50521L650.78436 74.927086L650.01874 74.927086L650.01874 74.114586L650.78436 74.114586L650.78436 72.56771L651.83124 71.94271L651.83124 74.114586L652.89374 74.114586L652.89374 74.927086L651.83124 74.927086L651.83124 78.56771Q651.83124 79.020836 651.8781 79.145836Q651.9406 79.270836 652.0656 79.34896Q652.1906 79.427086 652.425 79.427086Q652.6125 79.427086 652.89374 79.395836ZM656.925 80.333336L656.925 71.739586L658.05 71.739586L658.05 80.333336L656.925 80.333336ZM659.59686 80.333336L659.59686 74.114586L660.53436 74.114586L660.53436 74.989586Q661.22186 73.97396 662.51874 73.97396Q663.08124 73.97396 663.55 74.177086Q664.03436 74.38021 664.26874 74.708336Q664.5031 75.03646 664.59686 75.47396Q664.64374 75.770836 664.64374 76.50521L664.64374 80.333336L663.59686 80.333336L663.59686 76.552086Q663.59686 75.895836 663.47186 75.583336Q663.34686 75.270836 663.03436 75.083336Q662.72186 74.88021 662.3 74.88021Q661.6281 74.88021 661.1281 75.31771Q660.64374 75.739586 660.64374 76.927086L660.64374 80.333336L659.59686 80.333336ZM666.175 78.47396L667.20624 78.31771Q667.3 78.94271 667.6906 79.270836Q668.09686 79.59896 668.83124 79.59896Q669.55 79.59896 669.89374 79.31771Q670.2531 79.020836 670.2531 78.614586Q670.2531 78.25521 669.9406 78.052086Q669.72186 77.91146 668.8625 77.69271Q667.70624 77.395836 667.2531 77.19271Q666.8156 76.97396 666.58124 76.59896Q666.34686 76.22396 666.34686 75.75521Q666.34686 75.34896 666.53436 74.989586Q666.72186 74.63021 667.05 74.395836Q667.3 74.22396 667.72186 74.09896Q668.14374 73.97396 668.64374 73.97396Q669.3625 73.97396 669.90936 74.19271Q670.47186 74.395836 670.7375 74.75521Q671.0031 75.114586 671.09686 75.708336L670.0656 75.84896Q670.0031 75.38021 669.65936 75.114586Q669.33124 74.833336 668.70624 74.833336Q667.9875 74.833336 667.675 75.083336Q667.3625 75.31771 667.3625 75.645836Q667.3625 75.84896 667.4875 76.00521Q667.6281 76.177086 667.89374 76.28646Q668.05 76.34896 668.83124 76.552086Q669.95624 76.864586 670.39374 77.052086Q670.83124 77.239586 671.08124 77.59896Q671.33124 77.958336 671.33124 78.50521Q671.33124 79.03646 671.01874 79.50521Q670.72186 79.958336 670.14374 80.22396Q669.5656 80.47396 668.83124 80.47396Q667.6125 80.47396 666.97186 79.97396Q666.34686 79.458336 666.175 78.47396ZM675.89374 79.395836L676.05 80.31771Q675.59686 80.41146 675.2531 80.41146Q674.675 80.41146 674.3625 80.239586Q674.05 80.052086 673.90936 79.75521Q673.78436 79.458336 673.78436 78.50521L673.78436 74.927086L673.01874 74.927086L673.01874 74.114586L673.78436 74.114586L673.78436 72.56771L674.83124 71.94271L674.83124 74.114586L675.89374 74.114586L675.89374 74.927086L674.83124 74.927086L674.83124 78.56771Q674.83124 79.020836 674.8781 79.145836Q674.9406 79.270836 675.0656 79.34896Q675.1906 79.427086 675.425 79.427086Q675.6125 79.427086 675.89374 79.395836ZM680.65936 79.56771Q680.0656 80.06771 679.51874 80.270836Q678.9875 80.47396 678.3625 80.47396Q677.33124 80.47396 676.78436 79.97396Q676.2375 79.47396 676.2375 78.69271Q676.2375 78.239586 676.4406 77.864586Q676.64374 77.47396 676.9875 77.25521Q677.33124 77.020836 677.7531 76.91146Q678.05 76.81771 678.6906 76.739586Q679.95624 76.59896 680.5656 76.38021Q680.5656 76.16146 680.5656 76.114586Q680.5656 75.458336 680.26874 75.19271Q679.8625 74.84896 679.0656 74.84896Q678.33124 74.84896 677.97186 75.114586Q677.6125 75.364586 677.4406 76.020836L676.40936 75.88021Q676.55 75.22396 676.8781 74.81771Q677.20624 74.41146 677.8156 74.19271Q678.425 73.97396 679.22186 73.97396Q680.01874 73.97396 680.51874 74.16146Q681.01874 74.34896 681.2531 74.63021Q681.4875 74.91146 681.58124 75.34896Q681.6281 75.614586 681.6281 76.31771L681.6281 77.72396Q681.6281 79.19271 681.6906 79.583336Q681.76874 79.97396 681.97186 80.333336L680.8625 80.333336Q680.70624 80.00521 680.65936 79.56771ZM680.5656 77.208336Q679.9875 77.44271 678.84686 77.614586Q678.1906 77.708336 677.925 77.833336Q677.65936 77.94271 677.5031 78.16146Q677.3625 78.38021 677.3625 78.66146Q677.3625 79.083336 677.675 79.364586Q678.0031 79.645836 678.6125 79.645836Q679.22186 79.645836 679.6906 79.38021Q680.175 79.114586 680.39374 78.645836Q680.5656 78.28646 680.5656 77.59896L680.5656 77.208336ZM683.39374 80.84896L684.425 81.00521Q684.4875 81.47396 684.78436 81.69271Q685.175 81.989586 685.84686 81.989586Q686.58124 81.989586 686.97186 81.69271Q687.3781 81.395836 687.51874 80.88021Q687.6125 80.552086 687.59686 79.520836Q686.90936 80.333336 685.8781 80.333336Q684.59686 80.333336 683.89374 79.41146Q683.1906 78.47396 683.1906 77.19271Q683.1906 76.302086 683.5031 75.552086Q683.83124 74.78646 684.4406 74.38021Q685.05 73.97396 685.8781 73.97396Q686.9875 73.97396 687.70624 74.864586L687.70624 74.114586L688.675 74.114586L688.675 79.489586Q688.675 80.94271 688.3781 81.552086Q688.08124 82.16146 687.4406 82.50521Q686.8 82.864586 685.8625 82.864586Q684.7531 82.864586 684.0656 82.364586Q683.3781 81.864586 683.39374 80.84896ZM684.26874 77.114586Q684.26874 78.333336 684.7531 78.895836Q685.2375 79.458336 685.97186 79.458336Q686.70624 79.458336 687.1906 78.895836Q687.6906 78.333336 687.6906 77.145836Q687.6906 76.00521 687.175 75.427086Q686.675 74.84896 685.95624 74.84896Q685.2531 74.84896 684.7531 75.427086Q684.26874 75.989586 684.26874 77.114586ZM690.58124 80.333336L690.58124 74.114586L691.53436 74.114586L691.53436 75.052086Q691.89374 74.395836 692.1906 74.19271Q692.5031 73.97396 692.8781 73.97396Q693.40936 73.97396 693.95624 74.302086L693.59686 75.28646Q693.20624 75.052086 692.83124 75.052086Q692.47186 75.052086 692.1906 75.270836Q691.925 75.47396 691.8156 75.84896Q691.6281 76.41146 691.6281 77.06771L691.6281 80.333336L690.58124 80.333336ZM698.65936 79.56771Q698.0656 80.06771 697.51874 80.270836Q696.9875 80.47396 696.3625 80.47396Q695.33124 80.47396 694.78436 79.97396Q694.2375 79.47396 694.2375 78.69271Q694.2375 78.239586 694.4406 77.864586Q694.64374 77.47396 694.9875 77.25521Q695.33124 77.020836 695.7531 76.91146Q696.05 76.81771 696.6906 76.739586Q697.95624 76.59896 698.5656 76.38021Q698.5656 76.16146 698.5656 76.114586Q698.5656 75.458336 698.26874 75.19271Q697.8625 74.84896 697.0656 74.84896Q696.33124 74.84896 695.97186 75.114586Q695.6125 75.364586 695.4406 76.020836L694.40936 75.88021Q694.55 75.22396 694.8781 74.81771Q695.20624 74.41146 695.8156 74.19271Q696.425 73.97396 697.22186 73.97396Q698.01874 73.97396 698.51874 74.16146Q699.01874 74.34896 699.2531 74.63021Q699.4875 74.91146 699.58124 75.34896Q699.6281 75.614586 699.6281 76.31771L699.6281 77.72396Q699.6281 79.19271 699.6906 79.583336Q699.76874 79.97396 699.97186 80.333336L698.8625 80.333336Q698.70624 80.00521 698.65936 79.56771ZM698.5656 77.208336Q697.9875 77.44271 696.84686 77.614586Q696.1906 77.708336 695.925 77.833336Q695.65936 77.94271 695.5031 78.16146Q695.3625 78.38021 695.3625 78.66146Q695.3625 79.083336 695.675 79.364586Q696.0031 79.645836 696.6125 79.645836Q697.22186 79.645836 697.6906 79.38021Q698.175 79.114586 698.39374 78.645836Q698.5656 78.28646 698.5656 77.59896L698.5656 77.208336ZM701.59686 80.333336L701.59686 74.114586L702.53436 74.114586L702.53436 74.989586Q702.83124 74.520836 703.3156 74.25521Q703.8 73.97396 704.425 73.97396Q705.1125 73.97396 705.55 74.25521Q706.0031 74.53646 706.175 75.052086Q706.925 73.97396 708.09686 73.97396Q709.03436 73.97396 709.51874 74.489586Q710.01874 74.989586 710.01874 76.06771L710.01874 80.333336L708.97186 80.333336L708.97186 76.41146Q708.97186 75.78646 708.8625 75.50521Q708.76874 75.22396 708.5031 75.052086Q708.2375 74.88021 707.8625 74.88021Q707.20624 74.88021 706.76874 75.31771Q706.34686 75.75521 706.34686 76.72396L706.34686 80.333336L705.28436 80.333336L705.28436 76.28646Q705.28436 75.583336 705.01874 75.239586Q704.76874 74.88021 704.1906 74.88021Q703.7375 74.88021 703.3625 75.114586Q702.9875 75.34896 702.8156 75.802086Q702.64374 76.25521 702.64374 77.09896L702.64374 80.333336L701.59686 80.333336Z" fill-rule="nonzero"/><path fill="#e24a38" d="M613.8 100.333336C613.8 103.64704 611.1137 106.333336 607.8 106.333336C604.48627 106.333336 601.8 103.64704 601.8 100.333336C601.8 97.01962 604.48627 94.333336 607.8 94.333336C611.1137 94.333336 613.8 97.01962 613.8 100.333336Z" fill-rule="nonzero"/><path fill="#1a1a1a" d="M622.675 104.333336L622.675 95.739586L625.90936 95.739586Q626.89374 95.739586 627.4875 96.00521Q628.08124 96.270836 628.40936 96.81771Q628.7531 97.34896 628.7531 97.94271Q628.7531 98.489586 628.45624 98.97396Q628.15936 99.458336 627.55 99.75521Q628.33124 99.989586 628.7375 100.552086Q629.15936 101.09896 629.15936 101.84896Q629.15936 102.44271 628.90936 102.97396Q628.65936 103.489586 628.28436 103.770836Q627.90936 104.052086 627.33124 104.19271Q626.76874 104.333336 625.95624 104.333336L622.675 104.333336ZM623.8156 99.34896L625.675 99.34896Q626.425 99.34896 626.7531 99.25521Q627.1906 99.13021 627.40936 98.833336Q627.6281 98.520836 627.6281 98.06771Q627.6281 97.645836 627.425 97.31771Q627.22186 96.989586 626.83124 96.88021Q626.45624 96.75521 625.53436 96.75521L623.8156 96.75521L623.8156 99.34896ZM623.8156 103.31771L625.95624 103.31771Q626.5031 103.31771 626.72186 103.270836Q627.1281 103.208336 627.3781 103.052086Q627.64374 102.88021 627.8156 102.56771Q627.9875 102.25521 627.9875 101.84896Q627.9875 101.364586 627.7375 101.00521Q627.5031 100.645836 627.0656 100.50521Q626.6281 100.364586 625.8 100.364586L623.8156 100.364586L623.8156 103.31771ZM634.65936 103.56771Q634.0656 104.06771 633.51874 104.270836Q632.9875 104.47396 632.3625 104.47396Q631.33124 104.47396 630.78436 103.97396Q630.2375 103.47396 630.2375 102.69271Q630.2375 102.239586 630.4406 101.864586Q630.64374 101.47396 630.9875 101.25521Q631.33124 101.020836 631.7531 100.91146Q632.05 100.81771 632.6906 100.739586Q633.95624 100.59896 634.5656 100.38021Q634.5656 100.16146 634.5656 100.114586Q634.5656 99.458336 634.26874 99.19271Q633.8625 98.84896 633.0656 98.84896Q632.33124 98.84896 631.97186 99.114586Q631.6125 99.364586 631.4406 100.020836L630.40936 99.88021Q630.55 99.22396 630.8781 98.81771Q631.20624 98.41146 631.8156 98.19271Q632.425 97.97396 633.22186 97.97396Q634.01874 97.97396 634.51874 98.16146Q635.01874 98.34896 635.2531 98.63021Q635.4875 98.91146 635.58124 99.34896Q635.6281 99.614586 635.6281 100.31771L635.6281 101.72396Q635.6281 103.19271 635.6906 103.583336Q635.76874 103.97396 635.97186 104.333336L634.8625 104.333336Q634.70624 104.00521 634.65936 103.56771ZM634.5656 101.208336Q633.9875 101.44271 632.84686 101.614586Q632.1906 101.708336 631.925 101.833336Q631.65936 101.94271 631.5031 102.16146Q631.3625 102.38021 631.3625 102.66146Q631.3625 103.083336 631.675 103.364586Q632.0031 103.645836 632.6125 103.645836Q633.22186 103.645836 633.6906 103.38021Q634.175 103.114586 634.39374 102.645836Q634.5656 102.28646 634.5656 101.59896L634.5656 101.208336ZM637.55 106.72396L637.425 105.739586Q637.76874 105.833336 638.03436 105.833336Q638.3781 105.833336 638.58124 105.708336Q638.8 105.59896 638.9406 105.395836Q639.03436 105.22396 639.26874 104.59896Q639.28436 104.520836 639.3625 104.34896L636.9875 98.114586L638.1281 98.114586L639.425 101.708336Q639.675 102.395836 639.8781 103.16146Q640.0656 102.427086 640.3156 101.739586L641.64374 98.114586L642.6906 98.114586L640.33124 104.44271Q639.9406 105.458336 639.7375 105.84896Q639.45624 106.38021 639.08124 106.614586Q638.72186 106.864586 638.22186 106.864586Q637.925 106.864586 637.55 106.72396ZM646.675 104.333336L646.675 103.41146Q645.9406 104.47396 644.6906 104.47396Q644.14374 104.47396 643.65936 104.270836Q643.1906 104.052086 642.95624 103.739586Q642.72186 103.41146 642.6281 102.94271Q642.5656 102.645836 642.5656 101.958336L642.5656 98.114586L643.6281 98.114586L643.6281 101.56771Q643.6281 102.38021 643.6906 102.677086Q643.78436 103.083336 644.09686 103.333336Q644.425 103.56771 644.90936 103.56771Q645.3781 103.56771 645.78436 103.333336Q646.20624 103.083336 646.3781 102.66146Q646.5656 102.239586 646.5656 101.44271L646.5656 98.114586L647.6125 98.114586L647.6125 104.333336L646.675 104.333336ZM651.89374 103.395836L652.05 104.31771Q651.59686 104.41146 651.2531 104.41146Q650.675 104.41146 650.3625 104.239586Q650.05 104.052086 649.90936 103.75521Q649.78436 103.458336 649.78436 102.50521L649.78436 98.927086L649.01874 98.927086L649.01874 98.114586L649.78436 98.114586L649.78436 96.56771L650.83124 95.94271L650.83124 98.114586L651.89374 98.114586L651.89374 98.927086L650.83124 98.927086L650.83124 102.56771Q650.83124 103.020836 650.8781 103.145836Q650.9406 103.270836 651.0656 103.34896Q651.1906 103.427086 651.425 103.427086Q651.6125 103.427086 651.89374 103.395836Z" fill-rule="nonzero"/><path fill="#28998b" d="M613.8 124.333336C613.8 127.64704 611.1137 130.33333 607.8 130.33333C604.48627 130.33333 601.8 127.64704 601.8 124.333336C601.8 121.01962 604.48627 118.333336 607.8 118.333336C611.1137 118.333336 613.8 121.01962 613.8 124.333336Z" fill-rule="nonzero"/><path fill="#1a1a1a" d="M622.7531 128.33333L622.7531 119.73958L628.95624 119.73958L628.95624 120.7552L623.89374 120.7552L623.89374 123.3802L628.64374 123.3802L628.64374 124.39583L623.89374 124.39583L623.89374 127.3177L629.15936 127.3177L629.15936 128.33333L622.7531 128.33333ZM630.59686 128.33333L630.59686 122.11458L631.53436 122.11458L631.53436 122.98958Q631.83124 122.52083 632.3156 122.2552Q632.8 121.97395 633.425 121.97395Q634.1125 121.97395 634.55 122.2552Q635.0031 122.53645 635.175 123.05208Q635.925 121.97395 637.09686 121.97395Q638.03436 121.97395 638.51874 122.48958Q639.01874 122.98958 639.01874 124.0677L639.01874 128.33333L637.97186 128.33333L637.97186 124.41145Q637.97186 123.78645 637.8625 123.5052Q637.76874 123.22395 637.5031 123.05208Q637.2375 122.8802 636.8625 122.8802Q636.20624 122.8802 635.76874 123.3177Q635.34686 123.7552 635.34686 124.72395L635.34686 128.33333L634.28436 128.33333L634.28436 124.28645Q634.28436 123.58333 634.01874 123.23958Q633.76874 122.8802 633.1906 122.8802Q632.7375 122.8802 632.3625 123.11458Q631.9875 123.34895 631.8156 123.80208Q631.64374 124.2552 631.64374 125.09895L631.64374 128.33333L630.59686 128.33333ZM645.65936 127.5677Q645.0656 128.0677 644.51874 128.27083Q643.9875 128.47395 643.3625 128.47395Q642.33124 128.47395 641.78436 127.97395Q641.2375 127.47395 641.2375 126.6927Q641.2375 126.23958 641.4406 125.86458Q641.64374 125.47395 641.9875 125.2552Q642.33124 125.02083 642.7531 124.91145Q643.05 124.8177 643.6906 124.73958Q644.95624 124.59895 645.5656 124.3802Q645.5656 124.16145 645.5656 124.11458Q645.5656 123.45833 645.26874 123.1927Q644.8625 122.84895 644.0656 122.84895Q643.33124 122.84895 642.97186 123.11458Q642.6125 123.36458 642.4406 124.02083L641.40936 123.8802Q641.55 123.22395 641.8781 122.8177Q642.20624 122.41145 642.8156 122.1927Q643.425 121.97395 644.22186 121.97395Q645.01874 121.97395 645.51874 122.16145Q646.01874 122.34895 646.2531 122.6302Q646.4875 122.91145 646.58124 123.34895Q646.6281 123.61458 646.6281 124.3177L646.6281 125.72395Q646.6281 127.1927 646.6906 127.58333Q646.76874 127.97395 646.97186 128.33333L645.8625 128.33333Q645.70624 128.0052 645.65936 127.5677ZM645.5656 125.20833Q644.9875 125.4427 643.84686 125.61458Q643.1906 125.70833 642.925 125.83333Q642.65936 125.9427 642.5031 126.16145Q642.3625 126.3802 642.3625 126.66145Q642.3625 127.08333 642.675 127.36458Q643.0031 127.64583 643.6125 127.64583Q644.22186 127.64583 644.6906 127.3802Q645.175 127.11458 645.39374 126.64583Q645.5656 126.28645 645.5656 125.59895L645.5656 125.20833ZM648.59686 120.95833L648.59686 119.73958L649.65936 119.73958L649.65936 120.95833L648.59686 120.95833ZM648.59686 128.33333L648.59686 122.11458L649.65936 122.11458L649.65936 128.33333L648.59686 128.33333ZM651.5656 128.33333L651.5656 119.73958L652.6281 119.73958L652.6281 128.33333L651.5656 128.33333ZM663.8625 125.3177L664.9875 125.61458Q664.6281 127.0052 663.70624 127.73958Q662.78436 128.47395 661.4406 128.47395Q660.05 128.47395 659.175 127.91145Q658.3 127.34895 657.84686 126.28645Q657.39374 125.20833 657.39374 123.97395Q657.39374 122.6302 657.90936 121.6302Q658.425 120.6302 659.3625 120.11458Q660.3156 119.59895 661.45624 119.59895Q662.7375 119.59895 663.6125 120.2552Q664.5031 120.91145 664.84686 122.09895L663.72186 122.36458Q663.425 121.42708 662.84686 121.0052Q662.28436 120.5677 661.425 120.5677Q660.4406 120.5677 659.76874 121.05208Q659.1125 121.52083 658.83124 122.3177Q658.5656 123.11458 658.5656 123.97395Q658.5656 125.0677 658.8781 125.8802Q659.20624 126.6927 659.8781 127.09895Q660.55 127.5052 661.34686 127.5052Q662.3 127.5052 662.95624 126.95833Q663.6281 126.41145 663.8625 125.3177ZM670.65936 127.5677Q670.0656 128.0677 669.51874 128.27083Q668.9875 128.47395 668.3625 128.47395Q667.33124 128.47395 666.78436 127.97395Q666.2375 127.47395 666.2375 126.6927Q666.2375 126.23958 666.4406 125.86458Q666.64374 125.47395 666.9875 125.2552Q667.33124 125.02083 667.7531 124.91145Q668.05 124.8177 668.6906 124.73958Q669.95624 124.59895 670.5656 124.3802Q670.5656 124.16145 670.5656 124.11458Q670.5656 123.45833 670.26874 123.1927Q669.8625 122.84895 669.0656 122.84895Q668.33124 122.84895 667.97186 123.11458Q667.6125 123.36458 667.4406 124.02083L666.40936 123.8802Q666.55 123.22395 666.8781 122.8177Q667.20624 122.41145 667.8156 122.1927Q668.425 121.97395 669.22186 121.97395Q670.01874 121.97395 670.51874 122.16145Q671.01874 122.34895 671.2531 122.6302Q671.4875 122.91145 671.58124 123.34895Q671.6281 123.61458 671.6281 124.3177L671.6281 125.72395Q671.6281 127.1927 671.6906 127.58333Q671.76874 127.97395 671.97186 128.33333L670.8625 128.33333Q670.70624 128.0052 670.65936 127.5677ZM670.5656 125.20833Q669.9875 125.4427 668.84686 125.61458Q668.1906 125.70833 667.925 125.83333Q667.65936 125.9427 667.5031 126.16145Q667.3625 126.3802 667.3625 126.66145Q667.3625 127.08333 667.675 127.36458Q668.0031 127.64583 668.6125 127.64583Q669.22186 127.64583 669.6906 127.3802Q670.175 127.11458 670.39374 126.64583Q670.5656 126.28645 670.5656 125.59895L670.5656 125.20833ZM673.59686 128.33333L673.59686 122.11458L674.53436 122.11458L674.53436 122.98958Q674.83124 122.52083 675.3156 122.2552Q675.8 121.97395 676.425 121.97395Q677.1125 121.97395 677.55 122.2552Q678.0031 122.53645 678.175 123.05208Q678.925 121.97395 680.09686 121.97395Q681.03436 121.97395 681.51874 122.48958Q682.01874 122.98958 682.01874 124.0677L682.01874 128.33333L680.97186 128.33333L680.97186 124.41145Q680.97186 123.78645 680.8625 123.5052Q680.76874 123.22395 680.5031 123.05208Q680.2375 122.8802 679.8625 122.8802Q679.20624 122.8802 678.76874 123.3177Q678.34686 123.7552 678.34686 124.72395L678.34686 128.33333L677.28436 128.33333L677.28436 124.28645Q677.28436 123.58333 677.01874 123.23958Q676.76874 122.8802 676.1906 122.8802Q675.7375 122.8802 675.3625 123.11458Q674.9875 123.34895 674.8156 123.80208Q674.64374 124.2552 674.64374 125.09895L674.64374 128.33333L673.59686 128.33333ZM684.59686 130.72395L684.59686 122.11458L685.55 122.11458L685.55 122.91145Q685.89374 122.4427 686.3156 122.20833Q686.7531 121.97395 687.3625 121.97395Q688.15936 121.97395 688.76874 122.3802Q689.3781 122.78645 689.675 123.53645Q689.9875 124.28645 689.9875 125.17708Q689.9875 126.1302 689.64374 126.89583Q689.3156 127.66145 688.65936 128.0677Q688.0031 128.47395 687.28436 128.47395Q686.7531 128.47395 686.33124 128.2552Q685.90936 128.02083 685.64374 127.6927L685.64374 130.72395L684.59686 130.72395ZM685.55 125.2552Q685.55 126.45833 686.03436 127.03645Q686.51874 127.59895 687.20624 127.59895Q687.90936 127.59895 688.40936 127.0052Q688.90936 126.41145 688.90936 125.16145Q688.90936 123.97395 688.425 123.39583Q687.9406 122.80208 687.2531 122.80208Q686.58124 122.80208 686.0656 123.42708Q685.55 124.05208 685.55 125.2552ZM695.65936 127.5677Q695.0656 128.0677 694.51874 128.27083Q693.9875 128.47395 693.3625 128.47395Q692.33124 128.47395 691.78436 127.97395Q691.2375 127.47395 691.2375 126.6927Q691.2375 126.23958 691.4406 125.86458Q691.64374 125.47395 691.9875 125.2552Q692.33124 125.02083 692.7531 124.91145Q693.05 124.8177 693.6906 124.73958Q694.95624 124.59895 695.5656 124.3802Q695.5656 124.16145 695.5656 124.11458Q695.5656 123.45833 695.26874 123.1927Q694.8625 122.84895 694.0656 122.84895Q693.33124 122.84895 692.97186 123.11458Q692.6125 123.36458 692.4406 124.02083L691.40936 123.8802Q691.55 123.22395 691.8781 122.8177Q692.20624 122.41145 692.8156 122.1927Q693.425 121.97395 694.22186 121.97395Q695.01874 121.97395 695.51874 122.16145Q696.01874 122.34895 696.2531 122.6302Q696.4875 122.91145 696.58124 123.34895Q696.6281 123.61458 696.6281 124.3177L696.6281 125.72395Q696.6281 127.1927 696.6906 127.58333Q696.76874 127.97395 696.97186 128.33333L695.8625 128.33333Q695.70624 128.0052 695.65936 127.5677ZM695.5656 125.20833Q694.9875 125.4427 693.84686 125.61458Q693.1906 125.70833 692.925 125.83333Q692.65936 125.9427 692.5031 126.16145Q692.3625 126.3802 692.3625 126.66145Q692.3625 127.08333 692.675 127.36458Q693.0031 127.64583 693.6125 127.64583Q694.22186 127.64583 694.6906 127.3802Q695.175 127.11458 695.39374 126.64583Q695.5656 126.28645 695.5656 125.59895L695.5656 125.20833ZM698.59686 120.95833L698.59686 119.73958L699.65936 119.73958L699.65936 120.95833L698.59686 120.95833ZM698.59686 128.33333L698.59686 122.11458L699.65936 122.11458L699.65936 128.33333L698.59686 128.33333ZM701.39374 128.84895L702.425 129.0052Q702.4875 129.47395 702.78436 129.6927Q703.175 129.98958 703.84686 129.98958Q704.58124 129.98958 704.97186 129.6927Q705.3781 129.39583 705.51874 128.8802Q705.6125 128.55208 705.59686 127.52083Q704.90936 128.33333 703.8781 128.33333Q702.59686 128.33333 701.89374 127.41145Q701.1906 126.47395 701.1906 125.1927Q701.1906 124.30208 701.5031 123.55208Q701.83124 122.78645 702.4406 122.3802Q703.05 121.97395 703.8781 121.97395Q704.9875 121.97395 705.70624 122.86458L705.70624 122.11458L706.675 122.11458L706.675 127.48958Q706.675 128.9427 706.3781 129.55208Q706.08124 130.16145 705.4406 130.5052Q704.8 130.86458 703.8625 130.86458Q702.7531 130.86458 702.0656 130.36458Q701.3781 129.86458 701.39374 128.84895ZM702.26874 125.11458Q702.26874 126.33333 702.7531 126.89583Q703.2375 127.45833 703.97186 127.45833Q704.70624 127.45833 705.1906 126.89583Q705.6906 126.33333 705.6906 125.14583Q705.6906 124.0052 705.175 123.42708Q704.675 122.84895 703.95624 122.84895Q703.2531 122.84895 702.7531 123.42708Q702.26874 123.98958 702.26874 125.11458ZM708.59686 128.33333L708.59686 122.11458L709.53436 122.11458L709.53436 122.98958Q710.22186 121.97395 711.51874 121.97395Q712.08124 121.97395 712.55 122.17708Q713.03436 122.3802 713.26874 122.70833Q713.5031 123.03645 713.59686 123.47395Q713.64374 123.77083 713.64374 124.5052L713.64374 128.33333L712.59686 128.33333L712.59686 124.55208Q712.59686 123.89583 712.47186 123.58333Q712.34686 123.27083 712.03436 123.08333Q711.72186 122.8802 711.3 122.8802Q710.6281 122.8802 710.1281 123.3177Q709.64374 123.73958 709.64374 124.92708L709.64374 128.33333L708.59686 128.33333Z" fill-rule="nonzero"/><path fill="#f5959c" d="M613.8 148.33333C613.8 151.64705 611.1137 154.33333 607.8 154.33333C604.48627 154.33333 601.8 151.64705 601.8 148.33333C601.8 145.01962 604.48627 142.33333 607.8 142.33333C611.1137 142.33333 613.8 145.01962 613.8 148.33333Z" fill-rule="nonzero"/><path fill="#1a1a1a" d="M622.78436 152.33333L622.78436 143.73958L628.58124 143.73958L628.58124 144.7552L623.925 144.7552L623.925 147.41145L627.95624 147.41145L627.95624 148.42708L623.925 148.42708L623.925 152.33333L622.78436 152.33333ZM633.65936 151.5677Q633.0656 152.0677 632.51874 152.27083Q631.9875 152.47395 631.3625 152.47395Q630.33124 152.47395 629.78436 151.97395Q629.2375 151.47395 629.2375 150.6927Q629.2375 150.23958 629.4406 149.86458Q629.64374 149.47395 629.9875 149.2552Q630.33124 149.02083 630.7531 148.91145Q631.05 148.8177 631.6906 148.73958Q632.95624 148.59895 633.5656 148.3802Q633.5656 148.16145 633.5656 148.11458Q633.5656 147.45833 633.26874 147.1927Q632.8625 146.84895 632.0656 146.84895Q631.33124 146.84895 630.97186 147.11458Q630.6125 147.36458 630.4406 148.02083L629.40936 147.8802Q629.55 147.22395 629.8781 146.8177Q630.20624 146.41145 630.8156 146.1927Q631.425 145.97395 632.22186 145.97395Q633.01874 145.97395 633.51874 146.16145Q634.01874 146.34895 634.2531 146.6302Q634.4875 146.91145 634.58124 147.34895Q634.6281 147.61458 634.6281 148.3177L634.6281 149.72395Q634.6281 151.1927 634.6906 151.58333Q634.76874 151.97395 634.97186 152.33333L633.8625 152.33333Q633.70624 152.0052 633.65936 151.5677ZM633.5656 149.20833Q632.9875 149.4427 631.84686 149.61458Q631.1906 149.70833 630.925 149.83333Q630.65936 149.9427 630.5031 150.16145Q630.3625 150.3802 630.3625 150.66145Q630.3625 151.08333 630.675 151.36458Q631.0031 151.64583 631.6125 151.64583Q632.22186 151.64583 632.6906 151.3802Q633.175 151.11458 633.39374 150.64583Q633.5656 150.28645 633.5656 149.59895L633.5656 149.20833ZM640.65936 150.05208L641.6906 150.1927Q641.51874 151.2552 640.8156 151.86458Q640.1125 152.47395 639.09686 152.47395Q637.8156 152.47395 637.03436 151.64583Q636.26874 150.80208 636.26874 149.23958Q636.26874 148.23958 636.59686 147.48958Q636.9406 146.72395 637.6125 146.34895Q638.3 145.97395 639.1125 145.97395Q640.1125 145.97395 640.7531 146.48958Q641.40936 146.98958 641.59686 147.9427L640.5656 148.09895Q640.425 147.47395 640.05 147.16145Q639.675 146.83333 639.14374 146.83333Q638.34686 146.83333 637.84686 147.41145Q637.34686 147.97395 637.34686 149.20833Q637.34686 150.47395 637.83124 151.03645Q638.3156 151.59895 639.08124 151.59895Q639.70624 151.59895 640.1125 151.22395Q640.53436 150.84895 640.65936 150.05208ZM646.84686 150.33333L647.9406 150.45833Q647.6906 151.41145 646.9875 151.9427Q646.28436 152.47395 645.20624 152.47395Q643.84686 152.47395 643.03436 151.6302Q642.2375 150.78645 642.2375 149.27083Q642.2375 147.70833 643.05 146.84895Q643.8625 145.97395 645.14374 145.97395Q646.39374 145.97395 647.175 146.8177Q647.97186 147.66145 647.97186 149.20833Q647.97186 149.30208 647.97186 149.48958L643.33124 149.48958Q643.39374 150.52083 643.90936 151.0677Q644.425 151.59895 645.20624 151.59895Q645.78436 151.59895 646.1906 151.30208Q646.6125 150.98958 646.84686 150.33333ZM643.39374 148.6302L646.8625 148.6302Q646.8 147.83333 646.47186 147.4427Q645.95624 146.83333 645.15936 146.83333Q644.425 146.83333 643.925 147.3177Q643.4406 147.80208 643.39374 148.6302ZM650.5656 152.33333L649.58124 152.33333L649.58124 143.73958L650.64374 143.73958L650.64374 146.80208Q651.3156 145.97395 652.34686 145.97395Q652.925 145.97395 653.425 146.20833Q653.9406 146.42708 654.26874 146.84895Q654.6125 147.27083 654.8 147.86458Q654.9875 148.45833 654.9875 149.1302Q654.9875 150.72395 654.1906 151.59895Q653.39374 152.47395 652.3 152.47395Q651.1906 152.47395 650.5656 151.55208L650.5656 152.33333ZM650.55 149.17708Q650.55 150.28645 650.8625 150.78645Q651.3625 151.59895 652.20624 151.59895Q652.89374 151.59895 653.39374 151.0052Q653.90936 150.41145 653.90936 149.20833Q653.90936 147.98958 653.425 147.41145Q652.9406 146.83333 652.2531 146.83333Q651.5656 146.83333 651.05 147.4427Q650.55 148.03645 650.55 149.17708ZM656.20624 149.22395Q656.20624 147.48958 657.15936 146.66145Q657.95624 145.97395 659.1125 145.97395Q660.39374 145.97395 661.20624 146.8177Q662.03436 147.64583 662.03436 149.1302Q662.03436 150.33333 661.675 151.02083Q661.3156 151.70833 660.6125 152.09895Q659.925 152.47395 659.1125 152.47395Q657.8156 152.47395 657.0031 151.64583Q656.20624 150.80208 656.20624 149.22395ZM657.28436 149.22395Q657.28436 150.41145 657.8 151.0052Q658.33124 151.59895 659.1125 151.59895Q659.90936 151.59895 660.425 151.0052Q660.9406 150.41145 660.9406 149.1927Q660.9406 148.03645 660.40936 147.4427Q659.89374 146.84895 659.1125 146.84895Q658.33124 146.84895 657.8 147.4427Q657.28436 148.02083 657.28436 149.22395ZM663.20624 149.22395Q663.20624 147.48958 664.15936 146.66145Q664.95624 145.97395 666.1125 145.97395Q667.39374 145.97395 668.20624 146.8177Q669.03436 147.64583 669.03436 149.1302Q669.03436 150.33333 668.675 151.02083Q668.3156 151.70833 667.6125 152.09895Q666.925 152.47395 666.1125 152.47395Q664.8156 152.47395 664.0031 151.64583Q663.20624 150.80208 663.20624 149.22395ZM664.28436 149.22395Q664.28436 150.41145 664.8 151.0052Q665.33124 151.59895 666.1125 151.59895Q666.90936 151.59895 667.425 151.0052Q667.9406 150.41145 667.9406 149.1927Q667.9406 148.03645 667.40936 147.4427Q666.89374 146.84895 666.1125 146.84895Q665.33124 146.84895 664.8 147.4427Q664.28436 148.02083 664.28436 149.22395ZM670.59686 152.33333L670.59686 143.73958L671.65936 143.73958L671.65936 148.64583L674.14374 146.11458L675.51874 146.11458L673.1281 148.41145L675.7531 152.33333L674.45624 152.33333L672.39374 149.14583L671.65936 149.86458L671.65936 152.33333L670.59686 152.33333ZM675.8 152.47395L678.28436 143.59895L679.1281 143.59895L676.64374 152.47395L675.8 152.47395ZM679.925 152.33333L679.925 143.73958L681.05 143.73958L681.05 152.33333L679.925 152.33333ZM682.59686 152.33333L682.59686 146.11458L683.53436 146.11458L683.53436 146.98958Q684.22186 145.97395 685.51874 145.97395Q686.08124 145.97395 686.55 146.17708Q687.03436 146.3802 687.26874 146.70833Q687.5031 147.03645 687.59686 147.47395Q687.64374 147.77083 687.64374 148.5052L687.64374 152.33333L686.59686 152.33333L686.59686 148.55208Q686.59686 147.89583 686.47186 147.58333Q686.34686 147.27083 686.03436 147.08333Q685.72186 146.8802 685.3 146.8802Q684.6281 146.8802 684.1281 147.3177Q683.64374 147.73958 683.64374 148.92708L683.64374 152.33333L682.59686 152.33333ZM689.175 150.47395L690.20624 150.3177Q690.3 150.9427 690.6906 151.27083Q691.09686 151.59895 691.83124 151.59895Q692.55 151.59895 692.89374 151.3177Q693.2531 151.02083 693.2531 150.61458Q693.2531 150.2552 692.9406 150.05208Q692.72186 149.91145 691.8625 149.6927Q690.70624 149.39583 690.2531 149.1927Q689.8156 148.97395 689.58124 148.59895Q689.34686 148.22395 689.34686 147.7552Q689.34686 147.34895 689.53436 146.98958Q689.72186 146.6302 690.05 146.39583Q690.3 146.22395 690.72186 146.09895Q691.14374 145.97395 691.64374 145.97395Q692.3625 145.97395 692.90936 146.1927Q693.47186 146.39583 693.7375 146.7552Q694.0031 147.11458 694.09686 147.70833L693.0656 147.84895Q693.0031 147.3802 692.65936 147.11458Q692.33124 146.83333 691.70624 146.83333Q690.9875 146.83333 690.675 147.08333Q690.3625 147.3177 690.3625 147.64583Q690.3625 147.84895 690.4875 148.0052Q690.6281 148.17708 690.89374 148.28645Q691.05 148.34895 691.83124 148.55208Q692.95624 148.86458 693.39374 149.05208Q693.83124 149.23958 694.08124 149.59895Q694.33124 149.95833 694.33124 150.5052Q694.33124 151.03645 694.01874 151.5052Q693.72186 151.95833 693.14374 152.22395Q692.5656 152.47395 691.83124 152.47395Q690.6125 152.47395 689.97186 151.97395Q689.34686 151.45833 689.175 150.47395ZM698.89374 151.39583L699.05 152.3177Q698.59686 152.41145 698.2531 152.41145Q697.675 152.41145 697.3625 152.23958Q697.05 152.05208 696.90936 151.7552Q696.78436 151.45833 696.78436 150.5052L696.78436 146.92708L696.01874 146.92708L696.01874 146.11458L696.78436 146.11458L696.78436 144.5677L697.83124 143.9427L697.83124 146.11458L698.89374 146.11458L698.89374 146.92708L697.83124 146.92708L697.83124 150.5677Q697.83124 151.02083 697.8781 151.14583Q697.9406 151.27083 698.0656 151.34895Q698.1906 151.42708 698.425 151.42708Q698.6125 151.42708 698.89374 151.39583ZM703.65936 151.5677Q703.0656 152.0677 702.51874 152.27083Q701.9875 152.47395 701.3625 152.47395Q700.33124 152.47395 699.78436 151.97395Q699.2375 151.47395 699.2375 150.6927Q699.2375 150.23958 699.4406 149.86458Q699.64374 149.47395 699.9875 149.2552Q700.33124 149.02083 700.7531 148.91145Q701.05 148.8177 701.6906 148.73958Q702.95624 148.59895 703.5656 148.3802Q703.5656 148.16145 703.5656 148.11458Q703.5656 147.45833 703.26874 147.1927Q702.8625 146.84895 702.0656 146.84895Q701.33124 146.84895 700.97186 147.11458Q700.6125 147.36458 700.4406 148.02083L699.40936 147.8802Q699.55 147.22395 699.8781 146.8177Q700.20624 146.41145 700.8156 146.1927Q701.425 145.97395 702.22186 145.97395Q703.01874 145.97395 703.51874 146.16145Q704.01874 146.34895 704.2531 146.6302Q704.4875 146.91145 704.58124 147.34895Q704.6281 147.61458 704.6281 148.3177L704.6281 149.72395Q704.6281 151.1927 704.6906 151.58333Q704.76874 151.97395 704.97186 152.33333L703.8625 152.33333Q703.70624 152.0052 703.65936 151.5677ZM703.5656 149.20833Q702.9875 149.4427 701.84686 149.61458Q701.1906 149.70833 700.925 149.83333Q700.65936 149.9427 700.5031 150.16145Q700.3625 150.3802 700.3625 150.66145Q700.3625 151.08333 700.675 151.36458Q701.0031 151.64583 701.6125 151.64583Q702.22186 151.64583 702.6906 151.3802Q703.175 151.11458 703.39374 150.64583Q703.5656 150.28645 703.5656 149.59895L703.5656 149.20833ZM706.39374 152.84895L707.425 153.0052Q707.4875 153.47395 707.78436 153.6927Q708.175 153.98958 708.84686 153.98958Q709.58124 153.98958 709.97186 153.6927Q710.3781 153.39583 710.51874 152.8802Q710.6125 152.55208 710.59686 151.52083Q709.90936 152.33333 708.8781 152.33333Q707.59686 152.33333 706.89374 151.41145Q706.1906 150.47395 706.1906 149.1927Q706.1906 148.30208 706.5031 147.55208Q706.83124 146.78645 707.4406 146.3802Q708.05 145.97395 708.8781 145.97395Q709.9875 145.97395 710.70624 146.86458L710.70624 146.11458L711.675 146.11458L711.675 151.48958Q711.675 152.9427 711.3781 153.55208Q711.08124 154.16145 710.4406 154.5052Q709.8 154.86458 708.8625 154.86458Q707.7531 154.86458 707.0656 154.36458Q706.3781 153.86458 706.39374 152.84895ZM707.26874 149.11458Q707.26874 150.33333 707.7531 150.89583Q708.2375 151.45833 708.97186 151.45833Q709.70624 151.45833 710.1906 150.89583Q710.6906 150.33333 710.6906 149.14583Q710.6906 148.0052 710.175 147.42708Q709.675 146.84895 708.95624 146.84895Q708.2531 146.84895 707.7531 147.42708Q707.26874 147.98958 707.26874 149.11458ZM713.58124 152.33333L713.58124 146.11458L714.53436 146.11458L714.53436 147.05208Q714.89374 146.39583 715.1906 146.1927Q715.5031 145.97395 715.8781 145.97395Q716.40936 145.97395 716.95624 146.30208L716.59686 147.28645Q716.20624 147.05208 715.83124 147.05208Q715.47186 147.05208 715.1906 147.27083Q714.925 147.47395 714.8156 147.84895Q714.6281 148.41145 714.6281 149.0677L714.6281 152.33333L713.58124 152.33333ZM721.65936 151.5677Q721.0656 152.0677 720.51874 152.27083Q719.9875 152.47395 719.3625 152.47395Q718.33124 152.47395 717.78436 151.97395Q717.2375 151.47395 717.2375 150.6927Q717.2375 150.23958 717.4406 149.86458Q717.64374 149.47395 717.9875 149.2552Q718.33124 149.02083 718.7531 148.91145Q719.05 148.8177 719.6906 148.73958Q720.95624 148.59895 721.5656 148.3802Q721.5656 148.16145 721.5656 148.11458Q721.5656 147.45833 721.26874 147.1927Q720.8625 146.84895 720.0656 146.84895Q719.33124 146.84895 718.97186 147.11458Q718.6125 147.36458 718.4406 148.02083L717.40936 147.8802Q717.55 147.22395 717.8781 146.8177Q718.20624 146.41145 718.8156 146.1927Q719.425 145.97395 720.22186 145.97395Q721.01874 145.97395 721.51874 146.16145Q722.01874 146.34895 722.2531 146.6302Q722.4875 146.91145 722.58124 147.34895Q722.6281 147.61458 722.6281 148.3177L722.6281 149.72395Q722.6281 151.1927 722.6906 151.58333Q722.76874 151.97395 722.97186 152.33333L721.8625 152.33333Q721.70624 152.0052 721.65936 151.5677ZM721.5656 149.20833Q720.9875 149.4427 719.84686 149.61458Q719.1906 149.70833 718.925 149.83333Q718.65936 149.9427 718.5031 150.16145Q718.3625 150.3802 718.3625 150.66145Q718.3625 151.08333 718.675 151.36458Q719.0031 151.64583 719.6125 151.64583Q720.22186 151.64583 720.6906 151.3802Q721.175 151.11458 721.39374 150.64583Q721.5656 150.28645 721.5656 149.59895L721.5656 149.20833ZM724.59686 152.33333L724.59686 146.11458L725.53436 146.11458L725.53436 146.98958Q725.83124 146.52083 726.3156 146.2552Q726.8 145.97395 727.425 145.97395Q728.1125 145.97395 728.55 146.2552Q729.0031 146.53645 729.175 147.05208Q729.925 145.97395 731.09686 145.97395Q732.03436 145.97395 732.51874 146.48958Q733.01874 146.98958 733.01874 148.0677L733.01874 152.33333L731.97186 152.33333L731.97186 148.41145Q731.97186 147.78645 731.8625 147.5052Q731.76874 147.22395 731.5031 147.05208Q731.2375 146.8802 730.8625 146.8802Q730.20624 146.8802 729.76874 147.3177Q729.34686 147.7552 729.34686 148.72395L729.34686 152.33333L728.28436 152.33333L728.28436 148.28645Q728.28436 147.58333 728.01874 147.23958Q727.76874 146.8802 727.1906 146.8802Q726.7375 146.8802 726.3625 147.11458Q725.9875 147.34895 725.8156 147.80208Q725.64374 148.2552 725.64374 149.09895L725.64374 152.33333L724.59686 152.33333Z" fill-rule="nonzero"/><path fill="#4d92b2" d="M613.8 172.33333C613.8 175.64705 611.1137 178.33333 607.8 178.33333C604.48627 178.33333 601.8 175.64705 601.8 172.33333C601.8 169.01962 604.48627 166.33333 607.8 166.33333C611.1137 166.33333 613.8 169.01962 613.8 172.33333Z" fill-rule="nonzero"/><path fill="#1a1a1a" d="M626.7531 172.95833L626.7531 171.95833L630.3781 171.9427L630.3781 175.1302Q629.55 175.80208 628.65936 176.14583Q627.76874 176.47395 626.83124 176.47395Q625.5656 176.47395 624.51874 175.9427Q623.4875 175.39583 622.95624 174.3802Q622.4406 173.34895 622.4406 172.08333Q622.4406 170.8177 622.95624 169.73958Q623.4875 168.64583 624.47186 168.1302Q625.45624 167.59895 626.7375 167.59895Q627.675 167.59895 628.425 167.89583Q629.175 168.1927 629.59686 168.73958Q630.03436 169.27083 630.2531 170.14583L629.2375 170.42708Q629.03436 169.77083 628.7375 169.39583Q628.45624 169.02083 627.925 168.80208Q627.39374 168.5677 626.7531 168.5677Q625.97186 168.5677 625.39374 168.80208Q624.83124 169.03645 624.47186 169.42708Q624.1281 169.8177 623.9406 170.28645Q623.6125 171.08333 623.6125 172.0052Q623.6125 173.16145 624.0031 173.9427Q624.40936 174.70833 625.15936 175.08333Q625.90936 175.45833 626.76874 175.45833Q627.5031 175.45833 628.20624 175.17708Q628.90936 174.8802 629.26874 174.5677L629.26874 172.95833L626.7531 172.95833ZM631.20624 173.22395Q631.20624 171.48958 632.15936 170.66145Q632.95624 169.97395 634.1125 169.97395Q635.39374 169.97395 636.20624 170.8177Q637.03436 171.64583 637.03436 173.1302Q637.03436 174.33333 636.675 175.02083Q636.3156 175.70833 635.6125 176.09895Q634.925 176.47395 634.1125 176.47395Q632.8156 176.47395 632.0031 175.64583Q631.20624 174.80208 631.20624 173.22395ZM632.28436 173.22395Q632.28436 174.41145 632.8 175.0052Q633.33124 175.59895 634.1125 175.59895Q634.90936 175.59895 635.425 175.0052Q635.9406 174.41145 635.9406 173.1927Q635.9406 172.03645 635.40936 171.4427Q634.89374 170.84895 634.1125 170.84895Q633.33124 170.84895 632.8 171.4427Q632.28436 172.02083 632.28436 173.22395ZM638.20624 173.22395Q638.20624 171.48958 639.15936 170.66145Q639.95624 169.97395 641.1125 169.97395Q642.39374 169.97395 643.20624 170.8177Q644.03436 171.64583 644.03436 173.1302Q644.03436 174.33333 643.675 175.02083Q643.3156 175.70833 642.6125 176.09895Q641.925 176.47395 641.1125 176.47395Q639.8156 176.47395 639.0031 175.64583Q638.20624 174.80208 638.20624 173.22395ZM639.28436 173.22395Q639.28436 174.41145 639.8 175.0052Q640.33124 175.59895 641.1125 175.59895Q641.90936 175.59895 642.425 175.0052Q642.9406 174.41145 642.9406 173.1927Q642.9406 172.03645 642.40936 171.4427Q641.89374 170.84895 641.1125 170.84895Q640.33124 170.84895 639.8 171.4427Q639.28436 172.02083 639.28436 173.22395ZM645.39374 176.84895L646.425 177.0052Q646.4875 177.47395 646.78436 177.6927Q647.175 177.98958 647.84686 177.98958Q648.58124 177.98958 648.97186 177.6927Q649.3781 177.39583 649.51874 176.8802Q649.6125 176.55208 649.59686 175.52083Q648.90936 176.33333 647.8781 176.33333Q646.59686 176.33333 645.89374 175.41145Q645.1906 174.47395 645.1906 173.1927Q645.1906 172.30208 645.5031 171.55208Q645.83124 170.78645 646.4406 170.3802Q647.05 169.97395 647.8781 169.97395Q648.9875 169.97395 649.70624 170.86458L649.70624 170.11458L650.675 170.11458L650.675 175.48958Q650.675 176.9427 650.3781 177.55208Q650.08124 178.16145 649.4406 178.5052Q648.8 178.86458 647.8625 178.86458Q646.7531 178.86458 646.0656 178.36458Q645.3781 177.86458 645.39374 176.84895ZM646.26874 173.11458Q646.26874 174.33333 646.7531 174.89583Q647.2375 175.45833 647.97186 175.45833Q648.70624 175.45833 649.1906 174.89583Q649.6906 174.33333 649.6906 173.14583Q649.6906 172.0052 649.175 171.42708Q648.675 170.84895 647.95624 170.84895Q647.2531 170.84895 646.7531 171.42708Q646.26874 171.98958 646.26874 173.11458ZM652.5656 176.33333L652.5656 167.73958L653.6281 167.73958L653.6281 176.33333L652.5656 176.33333ZM659.84686 174.33333L660.9406 174.45833Q660.6906 175.41145 659.9875 175.9427Q659.28436 176.47395 658.20624 176.47395Q656.84686 176.47395 656.03436 175.6302Q655.2375 174.78645 655.2375 173.27083Q655.2375 171.70833 656.05 170.84895Q656.8625 169.97395 658.14374 169.97395Q659.39374 169.97395 660.175 170.8177Q660.97186 171.66145 660.97186 173.20833Q660.97186 173.30208 660.97186 173.48958L656.33124 173.48958Q656.39374 174.52083 656.90936 175.0677Q657.425 175.59895 658.20624 175.59895Q658.78436 175.59895 659.1906 175.30208Q659.6125 174.98958 659.84686 174.33333ZM656.39374 172.6302L659.8625 172.6302Q659.8 171.83333 659.47186 171.4427Q658.95624 170.83333 658.15936 170.83333Q657.425 170.83333 656.925 171.3177Q656.4406 171.80208 656.39374 172.6302ZM664.78436 176.33333L668.08124 167.73958L669.3 167.73958L672.8156 176.33333L671.53436 176.33333L670.51874 173.72395L666.9406 173.72395L665.9875 176.33333L664.78436 176.33333ZM667.26874 172.80208L670.175 172.80208L669.28436 170.42708Q668.8625 169.34895 668.675 168.64583Q668.5031 169.47395 668.20624 170.28645L667.26874 172.80208ZM676.6281 176.33333L676.6281 175.55208Q676.03436 176.47395 674.89374 176.47395Q674.14374 176.47395 673.51874 176.0677Q672.89374 175.64583 672.55 174.91145Q672.20624 174.17708 672.20624 173.22395Q672.20624 172.30208 672.51874 171.53645Q672.83124 170.77083 673.45624 170.3802Q674.08124 169.97395 674.84686 169.97395Q675.40936 169.97395 675.84686 170.20833Q676.28436 170.4427 676.5656 170.8177L676.5656 167.73958L677.6125 167.73958L677.6125 176.33333L676.6281 176.33333ZM673.3 173.22395Q673.3 174.42708 673.8 175.02083Q674.3 175.59895 674.9875 175.59895Q675.675 175.59895 676.15936 175.03645Q676.64374 174.47395 676.64374 173.3177Q676.64374 172.03645 676.14374 171.4427Q675.65936 170.84895 674.9406 170.84895Q674.2375 170.84895 673.76874 171.42708Q673.3 171.98958 673.3 173.22395ZM679.175 174.47395L680.20624 174.3177Q680.3 174.9427 680.6906 175.27083Q681.09686 175.59895 681.83124 175.59895Q682.55 175.59895 682.89374 175.3177Q683.2531 175.02083 683.2531 174.61458Q683.2531 174.2552 682.9406 174.05208Q682.72186 173.91145 681.8625 173.6927Q680.70624 173.39583 680.2531 173.1927Q679.8156 172.97395 679.58124 172.59895Q679.34686 172.22395 679.34686 171.7552Q679.34686 171.34895 679.53436 170.98958Q679.72186 170.6302 680.05 170.39583Q680.3 170.22395 680.72186 170.09895Q681.14374 169.97395 681.64374 169.97395Q682.3625 169.97395 682.90936 170.1927Q683.47186 170.39583 683.7375 170.7552Q684.0031 171.11458 684.09686 171.70833L683.0656 171.84895Q683.0031 171.3802 682.65936 171.11458Q682.33124 170.83333 681.70624 170.83333Q680.9875 170.83333 680.675 171.08333Q680.3625 171.3177 680.3625 171.64583Q680.3625 171.84895 680.4875 172.0052Q680.6281 172.17708 680.89374 172.28645Q681.05 172.34895 681.83124 172.55208Q682.95624 172.86458 683.39374 173.05208Q683.83124 173.23958 684.08124 173.59895Q684.33124 173.95833 684.33124 174.5052Q684.33124 175.03645 684.01874 175.5052Q683.72186 175.95833 683.14374 176.22395Q682.5656 176.47395 681.83124 176.47395Q680.6125 176.47395 679.97186 175.97395Q679.34686 175.45833 679.175 174.47395Z" fill-rule="nonzero"/><path fill="#757575" d="M276.04688 46.2L276.04688 31.8875L280.96875 31.8875Q282.64062 31.8875 283.53125 32.090626Q284.75 32.371876 285.625 33.10625Q286.75 34.075 287.3125 35.559376Q287.875 37.04375 287.875 38.965626Q287.875 40.590626 287.5 41.85625Q287.125 43.10625 286.51562 43.934376Q285.92188 44.7625 285.21875 45.246876Q284.51562 45.715626 283.51562 45.965626Q282.51562 46.2 281.20312 46.2L276.04688 46.2ZM277.9375 44.5125L281.0 44.5125Q282.40625 44.5125 283.20312 44.246876Q284.01562 43.98125 284.5 43.496876Q285.17188 42.825 285.54688 41.7Q285.92188 40.559376 285.92188 38.934376Q285.92188 36.684376 285.1875 35.48125Q284.45312 34.278126 283.39062 33.871876Q282.64062 33.575 280.95312 33.575L277.9375 33.575L277.9375 44.5125ZM296.92188 42.85625L298.73438 43.090626Q298.3125 44.66875 297.14062 45.559376Q295.98438 46.434376 294.17188 46.434376Q291.90625 46.434376 290.5625 45.04375Q289.23438 43.6375 289.23438 41.10625Q289.23438 38.48125 290.57812 37.04375Q291.92188 35.590626 294.07812 35.590626Q296.15625 35.590626 297.46875 37.0125Q298.79688 38.41875 298.79688 40.996876Q298.79688 41.153126 298.78125 41.465626L291.04688 41.465626Q291.14062 43.16875 292.01562 44.075Q292.89062 44.98125 294.1875 44.98125Q295.15625 44.98125 295.82812 44.48125Q296.51562 43.965626 296.92188 42.85625ZM291.14062 40.0125L296.9375 40.0125Q296.82812 38.715626 296.28125 38.059376Q295.4375 37.04375 294.09375 37.04375Q292.89062 37.04375 292.0625 37.85625Q291.23438 38.653126 291.14062 40.0125ZM307.59375 44.91875Q306.60938 45.746876 305.70312 46.090626Q304.79688 46.434376 303.76562 46.434376Q302.0625 46.434376 301.14062 45.60625Q300.21875 44.7625 300.21875 43.465626Q300.21875 42.7 300.5625 42.075Q300.92188 41.45 301.48438 41.075Q302.04688 40.684376 302.75 40.48125Q303.26562 40.35625 304.3125 40.215626Q306.4375 39.965626 307.4375 39.621876Q307.45312 39.2625 307.45312 39.153126Q307.45312 38.090626 306.95312 37.6375Q306.28125 37.04375 304.95312 37.04375Q303.70312 37.04375 303.10938 37.48125Q302.53125 37.91875 302.25 39.028126L300.53125 38.79375Q300.76562 37.684376 301.29688 37.0125Q301.82812 36.325 302.84375 35.965626Q303.85938 35.590626 305.20312 35.590626Q306.53125 35.590626 307.35938 35.903126Q308.1875 36.215626 308.57812 36.7Q308.96875 37.16875 309.125 37.8875Q309.21875 38.340626 309.21875 39.5125L309.21875 41.85625Q309.21875 44.309376 309.32812 44.965626Q309.4375 45.60625 309.78125 46.2L307.9375 46.2Q307.67188 45.653126 307.59375 44.91875ZM307.4375 40.996876Q306.48438 41.3875 304.5625 41.653126Q303.48438 41.809376 303.03125 42.0125Q302.59375 42.2 302.34375 42.575Q302.09375 42.95 302.09375 43.41875Q302.09375 44.121876 302.625 44.590626Q303.15625 45.059376 304.1875 45.059376Q305.20312 45.059376 305.98438 44.621876Q306.78125 44.16875 307.15625 43.403126Q307.4375 42.79375 307.4375 41.6375L307.4375 40.996876ZM311.78125 46.2L311.78125 31.8875L313.53125 31.8875L313.53125 46.2L311.78125 46.2ZM321.40625 41.60625L323.1875 41.45Q323.3125 42.5125 323.76562 43.2Q324.23438 43.8875 325.20312 44.325Q326.1875 44.746876 327.42188 44.746876Q328.5 44.746876 329.32812 44.434376Q330.15625 44.10625 330.5625 43.54375Q330.96875 42.98125 330.96875 42.309376Q330.96875 41.6375 330.57812 41.1375Q330.1875 40.6375 329.29688 40.29375Q328.71875 40.059376 326.73438 39.590626Q324.76562 39.121876 323.98438 38.7Q322.95312 38.16875 322.45312 37.371876Q321.95312 36.575 321.95312 35.590626Q321.95312 34.496876 322.5625 33.559376Q323.17188 32.621876 324.35938 32.1375Q325.54688 31.6375 326.98438 31.6375Q328.57812 31.6375 329.79688 32.153126Q331.01562 32.66875 331.65625 33.66875Q332.3125 34.653126 332.35938 35.91875L330.54688 36.059376Q330.40625 34.7 329.5625 34.0125Q328.71875 33.309376 327.0625 33.309376Q325.34375 33.309376 324.54688 33.95Q323.76562 34.575 323.76562 35.45Q323.76562 36.23125 324.32812 36.73125Q324.875 37.23125 327.1875 37.746876Q329.5 38.2625 330.35938 38.653126Q331.60938 39.23125 332.20312 40.121876Q332.79688 40.996876 332.79688 42.153126Q332.79688 43.29375 332.14062 44.309376Q331.48438 45.325 330.25 45.8875Q329.03125 46.45 327.5 46.45Q325.5625 46.45 324.25 45.8875Q322.9375 45.309376 322.1875 44.16875Q321.4375 43.028126 321.40625 41.60625ZM334.17188 41.0125Q334.17188 38.1375 335.76562 36.746876Q337.10938 35.590626 339.03125 35.590626Q341.17188 35.590626 342.51562 36.996876Q343.875 38.403126 343.875 40.871876Q343.875 42.871876 343.28125 44.028126Q342.6875 45.16875 341.53125 45.809376Q340.39062 46.434376 339.03125 46.434376Q336.84375 46.434376 335.5 45.04375Q334.17188 43.6375 334.17188 41.0125ZM335.96875 41.0125Q335.96875 43.0125 336.82812 43.996876Q337.70312 44.98125 339.03125 44.98125Q340.34375 44.98125 341.20312 43.996876Q342.07812 42.996876 342.07812 40.95Q342.07812 39.028126 341.20312 38.04375Q340.32812 37.04375 339.03125 37.04375Q337.70312 37.04375 336.82812 38.04375Q335.96875 39.028126 335.96875 41.0125ZM352.60938 46.2L352.60938 44.66875Q351.40625 46.434376 349.32812 46.434376Q348.40625 46.434376 347.60938 46.090626Q346.8125 45.73125 346.42188 45.2Q346.04688 44.66875 345.89062 43.8875Q345.78125 43.371876 345.78125 42.246876L345.78125 35.825L347.53125 35.825L347.53125 41.575Q347.53125 42.95 347.64062 43.434376Q347.8125 44.121876 348.34375 44.528126Q348.89062 44.91875 349.67188 44.91875Q350.46875 44.91875 351.15625 44.5125Q351.85938 44.10625 352.14062 43.41875Q352.4375 42.715626 352.4375 41.3875L352.4375 35.825L354.1875 35.825L354.1875 46.2L352.60938 46.2ZM355.79688 46.2L355.79688 35.825L357.375 35.825L357.375 37.403126Q357.98438 36.29375 358.5 35.95Q359.01562 35.590626 359.625 35.590626Q360.51562 35.590626 361.4375 36.153126L360.82812 37.79375Q360.1875 37.403126 359.54688 37.403126Q358.96875 37.403126 358.5 37.7625Q358.04688 38.10625 357.84375 38.715626Q357.5625 39.653126 357.5625 40.7625L357.5625 46.2L355.79688 46.2ZM369.59375 42.403126L371.3125 42.621876Q371.03125 44.41875 369.85938 45.434376Q368.70312 46.434376 367.0 46.434376Q364.875 46.434376 363.57812 45.04375Q362.28125 43.653126 362.28125 41.059376Q362.28125 39.371876 362.82812 38.121876Q363.39062 36.85625 364.53125 36.23125Q365.67188 35.590626 367.01562 35.590626Q368.70312 35.590626 369.76562 36.45Q370.84375 37.309376 371.15625 38.871876L369.4375 39.1375Q369.20312 38.090626 368.57812 37.575Q367.95312 37.04375 367.07812 37.04375Q365.75 37.04375 364.92188 37.996876Q364.09375 38.95 364.09375 40.996876Q364.09375 43.090626 364.89062 44.04375Q365.6875 44.98125 366.98438 44.98125Q368.01562 44.98125 368.70312 44.35625Q369.40625 43.715626 369.59375 42.403126ZM379.92188 42.85625L381.73438 43.090626Q381.3125 44.66875 380.14062 45.559376Q378.98438 46.434376 377.17188 46.434376Q374.90625 46.434376 373.5625 45.04375Q372.23438 43.6375 372.23438 41.10625Q372.23438 38.48125 373.57812 37.04375Q374.92188 35.590626 377.07812 35.590626Q379.15625 35.590626 380.46875 37.0125Q381.79688 38.41875 381.79688 40.996876Q381.79688 41.153126 381.78125 41.465626L374.04688 41.465626Q374.14062 43.16875 375.01562 44.075Q375.89062 44.98125 377.1875 44.98125Q378.15625 44.98125 378.82812 44.48125Q379.51562 43.965626 379.92188 42.85625ZM374.14062 40.0125L379.9375 40.0125Q379.82812 38.715626 379.28125 38.059376Q378.4375 37.04375 377.09375 37.04375Q375.89062 37.04375 375.0625 37.85625Q374.23438 38.653126 374.14062 40.0125ZM389.96875 46.2L389.96875 31.8875L395.34375 31.8875Q396.98438 31.8875 397.96875 32.325Q398.95312 32.746876 399.51562 33.653126Q400.07812 34.559376 400.07812 35.54375Q400.07812 36.465626 399.57812 37.278126Q399.09375 38.090626 398.07812 38.575Q399.375 38.965626 400.07812 39.8875Q400.78125 40.79375 400.78125 42.04375Q400.78125 43.059376 400.34375 43.91875Q399.92188 44.778126 399.29688 45.246876Q398.67188 45.715626 397.73438 45.965626Q396.79688 46.2 395.42188 46.2L389.96875 46.2ZM391.85938 37.903126L394.95312 37.903126Q396.21875 37.903126 396.76562 37.73125Q397.48438 37.5125 397.84375 37.028126Q398.21875 36.528126 398.21875 35.7625Q398.21875 35.059376 397.875 34.5125Q397.53125 33.965626 396.89062 33.778126Q396.26562 33.575 394.71875 33.575L391.85938 33.575L391.85938 37.903126ZM391.85938 44.5125L395.42188 44.5125Q396.34375 44.5125 396.71875 44.434376Q397.375 44.325 397.8125 44.059376Q398.25 43.778126 398.53125 43.2625Q398.8125 42.73125 398.8125 42.04375Q398.8125 41.246876 398.40625 40.653126Q398.0 40.059376 397.26562 39.825Q396.53125 39.590626 395.17188 39.590626L391.85938 39.590626L391.85938 44.5125ZM402.79688 46.2L402.79688 35.825L404.375 35.825L404.375 37.403126Q404.98438 36.29375 405.5 35.95Q406.01562 35.590626 406.625 35.590626Q407.51562 35.590626 408.4375 36.153126L407.82812 37.79375Q407.1875 37.403126 406.54688 37.403126Q405.96875 37.403126 405.5 37.7625Q405.04688 38.10625 404.84375 38.715626Q404.5625 39.653126 404.5625 40.7625L404.5625 46.2L402.79688 46.2ZM416.92188 42.85625L418.73438 43.090626Q418.3125 44.66875 417.14062 45.559376Q415.98438 46.434376 414.17188 46.434376Q411.90625 46.434376 410.5625 45.04375Q409.23438 43.6375 409.23438 41.10625Q409.23438 38.48125 410.57812 37.04375Q411.92188 35.590626 414.07812 35.590626Q416.15625 35.590626 417.46875 37.0125Q418.79688 38.41875 418.79688 40.996876Q418.79688 41.153126 418.78125 41.465626L411.04688 41.465626Q411.14062 43.16875 412.01562 44.075Q412.89062 44.98125 414.1875 44.98125Q415.15625 44.98125 415.82812 44.48125Q416.51562 43.965626 416.92188 42.85625ZM411.14062 40.0125L416.9375 40.0125Q416.82812 38.715626 416.28125 38.059376Q415.4375 37.04375 414.09375 37.04375Q412.89062 37.04375 412.0625 37.85625Q411.23438 38.653126 411.14062 40.0125ZM427.59375 44.91875Q426.60938 45.746876 425.70312 46.090626Q424.79688 46.434376 423.76562 46.434376Q422.0625 46.434376 421.14062 45.60625Q420.21875 44.7625 420.21875 43.465626Q420.21875 42.7 420.5625 42.075Q420.92188 41.45 421.48438 41.075Q422.04688 40.684376 422.75 40.48125Q423.26562 40.35625 424.3125 40.215626Q426.4375 39.965626 427.4375 39.621876Q427.45312 39.2625 427.45312 39.153126Q427.45312 38.090626 426.95312 37.6375Q426.28125 37.04375 424.95312 37.04375Q423.70312 37.04375 423.10938 37.48125Q422.53125 37.91875 422.25 39.028126L420.53125 38.79375Q420.76562 37.684376 421.29688 37.0125Q421.82812 36.325 422.84375 35.965626Q423.85938 35.590626 425.20312 35.590626Q426.53125 35.590626 427.35938 35.903126Q428.1875 36.215626 428.57812 36.7Q428.96875 37.16875 429.125 37.8875Q429.21875 38.340626 429.21875 39.5125L429.21875 41.85625Q429.21875 44.309376 429.32812 44.965626Q429.4375 45.60625 429.78125 46.2L427.9375 46.2Q427.67188 45.653126 427.59375 44.91875ZM427.4375 40.996876Q426.48438 41.3875 424.5625 41.653126Q423.48438 41.809376 423.03125 42.0125Q422.59375 42.2 422.34375 42.575Q422.09375 42.95 422.09375 43.41875Q422.09375 44.121876 422.625 44.590626Q423.15625 45.059376 424.1875 45.059376Q425.20312 45.059376 425.98438 44.621876Q426.78125 44.16875 427.15625 43.403126Q427.4375 42.79375 427.4375 41.6375L427.4375 40.996876ZM431.82812 46.2L431.82812 31.8875L433.59375 31.8875L433.59375 40.04375L437.75 35.825L440.01562 35.825L436.0625 39.66875L440.42188 46.2L438.25 46.2L434.82812 40.903126L433.59375 42.090626L433.59375 46.2L431.82812 46.2ZM448.54688 46.2L448.54688 44.8875Q447.5625 46.434376 445.64062 46.434376Q444.40625 46.434376 443.35938 45.746876Q442.32812 45.059376 441.75 43.840626Q441.1875 42.621876 441.1875 41.028126Q441.1875 39.465626 441.70312 38.2Q442.21875 36.934376 443.25 36.2625Q444.29688 35.590626 445.5625 35.590626Q446.5 35.590626 447.23438 35.996876Q447.96875 36.3875 448.4375 37.0125L448.4375 31.8875L450.17188 31.8875L450.17188 46.2L448.54688 46.2ZM442.98438 41.028126Q442.98438 43.0125 443.82812 43.996876Q444.67188 44.98125 445.8125 44.98125Q446.96875 44.98125 447.76562 44.04375Q448.57812 43.10625 448.57812 41.16875Q448.57812 39.04375 447.75 38.04375Q446.9375 37.04375 445.73438 37.04375Q444.5625 37.04375 443.76562 38.0125Q442.98438 38.965626 442.98438 41.028126ZM452.17188 41.0125Q452.17188 38.1375 453.76562 36.746876Q455.10938 35.590626 457.03125 35.590626Q459.17188 35.590626 460.51562 36.996876Q461.875 38.403126 461.875 40.871876Q461.875 42.871876 461.28125 44.028126Q460.6875 45.16875 459.53125 45.809376Q458.39062 46.434376 457.03125 46.434376Q454.84375 46.434376 453.5 45.04375Q452.17188 43.6375 452.17188 41.0125ZM453.96875 41.0125Q453.96875 43.0125 454.82812 43.996876Q455.70312 44.98125 457.03125 44.98125Q458.34375 44.98125 459.20312 43.996876Q460.07812 42.996876 460.07812 40.95Q460.07812 39.028126 459.20312 38.04375Q458.32812 37.04375 457.03125 37.04375Q455.70312 37.04375 454.82812 38.04375Q453.96875 39.028126 453.96875 41.0125ZM465.73438 46.2L462.5625 35.825L464.375 35.825L466.03125 41.809376L466.64062 44.04375Q466.6875 43.871876 467.17188 41.903126L468.82812 35.825L470.64062 35.825L472.1875 41.840626L472.70312 43.825L473.29688 41.825L475.07812 35.825L476.78125 35.825L473.54688 46.2L471.71875 46.2L470.0625 39.98125L469.67188 38.215626L467.5625 46.2L465.73438 46.2ZM478.8125 46.2L478.8125 35.825L480.40625 35.825L480.40625 37.309376Q481.54688 35.590626 483.70312 35.590626Q484.64062 35.590626 485.42188 35.934376Q486.21875 36.2625 486.60938 36.809376Q487.0 37.35625 487.15625 38.10625Q487.25 38.60625 487.25 39.825L487.25 46.2L485.48438 46.2L485.48438 39.8875Q485.48438 38.809376 485.28125 38.278126Q485.07812 37.746876 484.54688 37.434376Q484.03125 37.121876 483.32812 37.121876Q482.20312 37.121876 481.39062 37.840626Q480.57812 38.54375 480.57812 40.528126L480.57812 46.2L478.8125 46.2Z" fill-rule="nonzero"/></svg>